<svg width="284.000000" height="35.532776" viewBox="0 0 284 35.5328" fill="none" xmlns="http://www.w3.org/2000/svg" xmlns:xlink="http://www.w3.org/1999/xlink">
	<desc>
			Created with Pixso.
	</desc>
	<defs/>
	<path id="Кадровое Агенство" d="M100.08 23.51Q101.67 24.23 103.6 24.23Q105.54 24.23 107.14 23.49Q107.33 23.4 107.51 23.3Q108.56 22.73 109.34 21.91Q109.85 21.37 110.25 20.7Q110.53 20.25 110.73 19.76Q111.25 18.48 111.25 16.99Q111.25 15.52 110.74 14.26Q110.54 13.76 110.25 13.29Q109.85 12.62 109.32 12.07Q108.55 11.26 107.51 10.7Q107.31 10.59 107.11 10.5Q105.53 9.76 103.6 9.76Q101.69 9.76 100.11 10.48Q99.88 10.58 99.66 10.7Q98.6 11.27 97.82 12.1Q97.31 12.64 96.92 13.29Q96.66 13.73 96.47 14.2Q95.94 15.49 95.94 16.99Q95.94 18.52 96.48 19.82Q96.67 20.28 96.92 20.7Q97.31 21.35 97.81 21.88Q98.6 22.72 99.66 23.3Q99.87 23.41 100.08 23.51ZM131.82 23.51Q133.41 24.23 135.34 24.23Q137.28 24.23 138.88 23.49Q139.07 23.4 139.25 23.3Q140.3 22.73 141.08 21.91Q141.59 21.37 141.99 20.7Q142.27 20.25 142.47 19.76Q142.99 18.48 142.99 16.99Q142.99 15.52 142.48 14.26Q142.28 13.76 141.99 13.29Q141.59 12.62 141.06 12.07Q140.29 11.26 139.25 10.7Q139.05 10.59 138.85 10.5Q137.27 9.76 135.34 9.76Q133.43 9.76 131.85 10.48Q131.62 10.58 131.4 10.7Q130.34 11.27 129.56 12.1Q129.05 12.64 128.66 13.29Q128.4 13.73 128.21 14.2Q127.68 15.49 127.68 16.99Q127.68 18.52 128.22 19.82Q128.41 20.28 128.66 20.7Q129.05 21.35 129.55 21.88Q130.34 22.72 131.4 23.3Q131.61 23.41 131.82 23.51ZM225.55 23.57Q227.07 24.23 228.87 24.23Q230.7 24.23 232.18 23.59Q233.05 23.22 233.76 22.63Q234.25 22.23 234.66 21.73L232.58 19.82Q231.78 20.74 230.78 21.15Q229.99 21.48 229.06 21.48Q227.89 21.48 226.95 21.02Q226.84 20.96 226.74 20.9Q226.21 20.61 225.81 20.2Q225.42 19.81 225.14 19.32Q225.09 19.22 225.04 19.13Q224.57 18.18 224.57 16.99Q224.57 15.83 225.03 14.89Q225.08 14.78 225.14 14.67Q225.43 14.16 225.84 13.76Q226.23 13.37 226.74 13.09Q226.84 13.03 226.95 12.97Q227.89 12.52 229.06 12.52Q230 12.52 230.82 12.85Q231.8 13.26 232.58 14.16L234.66 12.24Q234.27 11.78 233.82 11.4Q233.09 10.79 232.19 10.4Q230.72 9.76 228.89 9.76Q227.01 9.76 225.45 10.47Q225.22 10.57 225 10.69Q224.02 11.22 223.28 11.97Q222.71 12.55 222.28 13.27Q222.06 13.63 221.89 14.02Q221.3 15.37 221.3 16.99Q221.3 18.6 221.88 19.95Q222.06 20.35 222.28 20.72Q222.71 21.43 223.27 22.01Q224.02 22.77 225 23.31Q225.27 23.45 225.55 23.57ZM267.44 23.51Q269.03 24.23 270.96 24.23Q272.9 24.23 274.5 23.49Q274.69 23.4 274.87 23.3Q275.92 22.73 276.7 21.91Q277.21 21.37 277.61 20.7Q277.89 20.25 278.09 19.76Q278.61 18.48 278.61 16.99Q278.61 15.52 278.1 14.26Q277.9 13.76 277.61 13.29Q277.21 12.62 276.68 12.07Q275.91 11.26 274.87 10.7Q274.67 10.59 274.47 10.5Q272.89 9.76 270.96 9.76Q269.05 9.76 267.47 10.48Q267.24 10.58 267.02 10.7Q265.96 11.27 265.18 12.1Q264.67 12.64 264.28 13.29Q264.02 13.73 263.83 14.2Q263.3 15.49 263.3 16.99Q263.3 18.52 263.84 19.82Q264.03 20.28 264.28 20.7Q264.67 21.35 265.17 21.88Q265.96 22.72 267.02 23.3Q267.23 23.41 267.44 23.51ZM38.92 18.36L41.15 18.36L44.8 24L51.46 24L52.7 21L59.2 21L60.44 24L63.83 24L57.57 10L54.38 10L48.27 23.69L43.76 16.75L48.34 10L44.91 10L41.24 15.66L38.92 15.66L38.92 10L35.69 10L35.69 24L38.92 24L38.92 18.36ZM80.26 26.9L80.26 21.35L78.29 21.35L78.29 10L67.54 10L67.38 14.38Q67.25 17.72 66.73 19.52Q66.34 20.89 65.51 21.24Q65.25 21.34 64.95 21.35L64.4 21.35L64.37 26.9L67.38 26.9L67.38 24L77.25 24L77.25 26.9L80.26 26.9ZM91.72 10.62Q90.35 10 88.49 10L82.43 10L82.43 24L85.68 24L85.68 20.13L88.49 20.13Q90.35 20.13 91.72 19.53Q92.8 19.05 93.48 18.24Q93.67 18.02 93.83 17.77Q93.94 17.6 94.03 17.43Q94.57 16.4 94.57 15.07Q94.57 13.67 93.97 12.61Q93.9 12.49 93.83 12.38Q93.69 12.16 93.53 11.96Q92.83 11.12 91.72 10.62ZM125.41 17.93Q124.73 17.07 123.46 16.7Q124.25 16.31 124.74 15.69Q124.83 15.57 124.91 15.45Q125.03 15.27 125.12 15.07Q125.43 14.42 125.43 13.61Q125.43 12.65 125.01 11.93Q124.67 11.35 124.07 10.94Q122.71 10 120.28 10L113.75 10L113.75 24L120.65 24Q123.28 24 124.69 22.96Q125.29 22.51 125.63 21.92Q126.1 21.12 126.1 20.05Q126.1 19.04 125.66 18.29Q125.55 18.1 125.41 17.94Q125.41 17.93 125.41 17.93ZM156.33 24L156.33 21.4L148.71 21.4L148.71 18.16L155.22 18.16L155.22 15.64L148.71 15.64L148.71 12.59L156.07 12.59L156.07 10L145.49 10L145.49 24L156.33 24ZM167.6 21L174.1 21L175.34 24L178.73 24L172.48 10L169.28 10L163.04 24L166.36 24L167.6 21ZM183.8 12.63L190.46 12.63L190.48 10L180.59 10L180.59 24L183.82 24L183.8 12.63ZM203.29 24L203.29 21.4L195.67 21.4L195.67 18.16L202.18 18.16L202.18 15.64L195.67 15.64L195.67 12.59L203.03 12.59L203.03 10L192.45 10L192.45 24L203.29 24ZM218.76 24L218.76 10L215.51 10L215.51 15.51L209.16 15.51L209.16 10L205.91 10L205.91 24L209.16 24L209.16 18.25L215.51 18.25L215.51 24L218.76 24ZM242.85 12.63L247.34 12.63L247.34 10L235.19 10L235.19 12.63L239.66 12.63L239.66 24L242.85 24L242.85 12.63ZM261.03 17.93Q260.35 17.07 259.07 16.7Q259.87 16.31 260.36 15.69Q260.45 15.57 260.53 15.45Q260.65 15.27 260.74 15.07Q261.05 14.42 261.05 13.61Q261.05 12.65 260.63 11.93Q260.29 11.35 259.69 10.94Q258.33 10 255.9 10L249.37 10L249.37 24L256.27 24Q258.9 24 260.31 22.96Q260.91 22.51 261.25 21.92Q261.72 21.12 261.72 20.05Q261.72 19.04 261.28 18.29Q261.17 18.1 261.03 17.94L261.03 17.93ZM119.99 15.8L116.98 15.8L116.98 12.39L119.99 12.39Q121.03 12.39 121.59 12.84Q121.76 12.98 121.88 13.15Q122.14 13.53 122.14 14.09Q122.14 14.73 121.83 15.13Q121.73 15.26 121.6 15.37Q121.05 15.8 119.99 15.8ZM255.61 15.8L252.6 15.8L252.6 12.39L255.61 12.39Q256.65 12.39 257.21 12.84Q257.38 12.98 257.5 13.15Q257.76 13.53 257.76 14.09Q257.76 14.73 257.45 15.13Q257.35 15.26 257.22 15.37Q256.67 15.8 255.61 15.8ZM105.34 21.15Q104.54 21.48 103.6 21.48Q102.64 21.48 101.82 21.13Q101.58 21.03 101.36 20.9Q100.9 20.64 100.53 20.28Q100.09 19.86 99.78 19.32Q99.73 19.22 99.68 19.13Q99.21 18.18 99.21 16.99Q99.21 15.83 99.67 14.89Q99.72 14.78 99.78 14.67Q100.1 14.1 100.56 13.68Q100.91 13.34 101.36 13.09Q101.58 12.96 101.82 12.86Q102.64 12.52 103.6 12.52Q104.54 12.52 105.34 12.84Q105.59 12.95 105.83 13.09Q106.28 13.34 106.64 13.68Q107.09 14.1 107.41 14.67Q107.47 14.78 107.52 14.89Q107.98 15.83 107.98 16.99Q107.98 18.18 107.51 19.13Q107.46 19.22 107.41 19.32Q107.1 19.86 106.67 20.28Q106.3 20.64 105.83 20.9Q105.59 21.04 105.34 21.15ZM137.08 21.15Q136.28 21.48 135.34 21.48Q134.38 21.48 133.56 21.13Q133.32 21.03 133.1 20.9Q132.64 20.64 132.27 20.28Q131.83 19.86 131.52 19.32Q131.47 19.22 131.42 19.13Q130.95 18.18 130.95 16.99Q130.95 15.83 131.41 14.89Q131.46 14.78 131.52 14.67Q131.84 14.1 132.3 13.68Q132.65 13.34 133.1 13.09Q133.32 12.96 133.56 12.86Q134.38 12.52 135.34 12.52Q136.28 12.52 137.08 12.84Q137.33 12.95 137.57 13.09Q138.02 13.34 138.38 13.68Q138.83 14.1 139.15 14.67Q139.21 14.78 139.26 14.89Q139.72 15.83 139.72 16.99Q139.72 18.18 139.25 19.13Q139.2 19.22 139.15 19.32Q138.84 19.86 138.41 20.28Q138.04 20.64 137.57 20.9Q137.33 21.04 137.08 21.15ZM272.7 21.15Q271.9 21.48 270.96 21.48Q270 21.48 269.18 21.13Q268.94 21.03 268.72 20.9Q268.26 20.64 267.88 20.28Q267.45 19.86 267.14 19.32Q267.09 19.22 267.04 19.13Q266.57 18.18 266.57 16.99Q266.57 15.83 267.03 14.89Q267.08 14.78 267.14 14.67Q267.46 14.1 267.92 13.68Q268.27 13.34 268.72 13.09Q268.94 12.96 269.18 12.86Q270 12.52 270.96 12.52Q271.9 12.52 272.7 12.84Q272.95 12.95 273.19 13.09Q273.64 13.34 274 13.68Q274.45 14.1 274.77 14.67Q274.83 14.78 274.88 14.89Q275.34 15.83 275.34 16.99Q275.34 18.18 274.87 19.13Q274.82 19.22 274.77 19.32Q274.46 19.86 274.03 20.28Q273.66 20.64 273.19 20.9Q272.95 21.04 272.7 21.15ZM69.81 18.86Q70.13 17.17 70.24 14.67L70.3 12.63L75.1 12.63L75.1 21.35L68.84 21.35Q69.49 20.55 69.81 18.86ZM90.53 16.87Q89.77 17.5 88.31 17.5L85.68 17.5L85.68 12.63L88.31 12.63Q89.77 12.63 90.53 13.27Q90.73 13.44 90.88 13.64Q91.29 14.21 91.29 15.07Q91.29 15.91 90.9 16.47Q90.75 16.69 90.53 16.87ZM55.96 13.17L58.18 18.54L53.74 18.54L55.96 13.17ZM170.86 13.17L173.08 18.54L168.64 18.54L170.86 13.17ZM122.48 20.91Q121.94 21.59 120.54 21.59L116.98 21.59L116.98 18.05L120.54 18.05Q121.98 18.05 122.51 18.75Q122.82 19.15 122.82 19.8Q122.82 20.48 122.48 20.91ZM258.1 20.91Q257.56 21.59 256.16 21.59L252.6 21.59L252.6 18.05L256.16 18.05Q257.6 18.05 258.13 18.75Q258.44 19.15 258.44 19.8Q258.44 20.48 258.1 20.91Z" fill="#E3E2E2" fill-opacity="1.000000" fill-rule="evenodd"/>
	<path id="Убрать верхний слой" d="M14.7722 21.7935L21.3548 31.649C21.6945 32.1575 21.5022 32.8491 20.9488 33.1093L16.6532 35.1292C16.1721 35.3555 15.598 35.1656 15.3466 34.6972L8.52112 21.9793C8.02951 21.0633 6.64001 21.4126 6.64001 22.4522L6.64001 34.5328C6.64001 35.0851 6.19229 35.5328 5.64001 35.5328L1 35.5328C0.447723 35.5328 0 35.0851 0 34.5328L0 14.6139L0 2.76657C0 2.33948 0.27124 1.95953 0.67514 1.8208L5.31516 0.22702C5.96429 0.00402832 6.64001 0.486359 6.64001 1.17276L6.64001 11.815C6.64001 12.8366 7.99133 13.2008 8.50461 12.3175L15.3733 0.497681C15.6172 0.0779724 16.1273 -0.105957 16.5829 0.0615234L20.6574 1.5592C21.3094 1.79886 21.5244 2.61407 21.0754 3.14417L15.4578 9.77554C12.5738 13.18 12.2941 18.0831 14.7722 21.7935ZM5.71472 19.8427L9.45718 19.8427C9.81635 19.8427 10.1479 20.0353 10.3259 20.3474L10.6862 20.9792C10.8641 21.2912 11.1957 21.4839 11.5549 21.4839L11.7473 21.4839C12.53 21.4839 13.0093 20.6254 12.5986 19.9591L9.10773 14.2961C8.92566 14.0007 8.60345 13.8208 8.25647 13.8208L6.96054 13.8208C6.61307 13.8208 6.29047 14.0012 6.10855 14.2973L2.62857 19.9603C2.21915 20.6266 2.69855 21.4839 3.48056 21.4839L3.617 21.4839C3.97617 21.4839 4.30774 21.2912 4.48569 20.9792L4.84604 20.3474C5.02396 20.0353 5.35553 19.8427 5.71472 19.8427ZM6.74979 17.0407C7.12329 16.3868 8.06622 16.3873 8.43915 17.0415C8.80869 17.6898 8.34048 18.4956 7.59424 18.4956C6.84756 18.4956 6.37939 17.689 6.74979 17.0407Z" clip-rule="evenodd" fill="#E3E2E2" fill-opacity="1.000000" fill-rule="evenodd"/>
</svg>
